<svg width="17" height="19" viewBox="0 0 17 19" fill="none" xmlns="http://www.w3.org/2000/svg">
<path d="M16.2079 10.9176V13.0902H12.9717V11.0053C12.9717 10.5079 12.8333 10.1421 12.5563 9.90798C12.2793 9.67398 11.9149 9.55681 11.4629 9.55681C11.1277 9.55681 10.8069 9.62996 10.5008 9.77625C10.2093 9.90798 9.95414 10.069 9.73558 10.2591L8.03003 8.37175C8.03003 8.37175 9.05768 7.66942 9.66998 7.40612C10.2821 7.1281 11.033 6.98901 11.9221 6.98901C12.6801 6.98901 13.3872 7.12074 14.0431 7.38404C14.6991 7.64749 15.2239 8.06444 15.6175 8.63504C16.0111 9.20565 16.2079 9.96656 16.2079 10.9176ZM12.9717 12.0808H16.2079V17.8308C16.0767 17.8747 15.8799 17.9113 15.6175 17.9406C15.3551 17.9845 15.0708 18.0064 14.7647 18.0064C14.1379 18.0064 13.6787 17.8966 13.3872 17.6772C13.1102 17.4577 12.9717 17.0627 12.9717 16.4921V12.0808Z" fill="#FF9033"/>
<path d="M9.96099 10.5874V13.0893H6.7004V11.0044C6.7004 10.5069 6.55453 10.1412 6.2628 9.907C5.97106 9.673 5.60632 9.55584 5.16872 9.55584C4.84769 9.55584 4.55596 9.60706 4.29337 9.70949C4.04535 9.79736 3.83384 9.89244 3.65883 9.99487V13.0893H0.420166V9.66564C0.420166 9.29991 0.493177 8.99996 0.639043 8.76579C0.79948 8.51707 1.02556 8.29763 1.3173 8.10732C1.79876 7.77088 2.38959 7.50022 3.08978 7.29535C3.79012 7.09047 4.51945 6.98804 5.27808 6.98804C5.97827 6.98804 6.63475 7.09784 7.24751 7.31727C7.86027 7.53671 8.39266 7.87331 8.84499 8.32692C8.96155 8.41463 9.07107 8.5097 9.17322 8.61214C9.28979 8.70001 9.37737 8.80245 9.43581 8.91945C9.58168 9.15345 9.70561 9.41691 9.80776 9.70949C9.90992 10.0021 9.96099 10.2948 9.96099 10.5874ZM0.420166 12.0798H3.65883V17.8298C3.51297 17.8737 3.30866 17.9103 3.04607 17.9396C2.78348 17.9835 2.49895 18.0054 2.19265 18.0054C1.57989 18.0054 1.12772 17.8956 0.835986 17.6762C0.558825 17.4567 0.420166 17.0617 0.420166 16.4911V12.0798ZM6.7004 12.0798H9.96099V17.8298C9.81497 17.8737 9.61082 17.9103 9.34823 17.9396C9.08564 17.9835 8.80112 18.0054 8.49481 18.0054C7.86748 18.0054 7.40795 17.8956 7.11622 17.6762C6.83905 17.4567 6.7004 17.0617 6.7004 16.4911V12.0798Z" fill="#00B1FF"/>
<path d="M5.41792 4.83074C6.73523 4.83074 7.80313 3.86455 7.80313 2.67269C7.80313 1.48084 6.73523 0.514648 5.41792 0.514648C4.10061 0.514648 3.03271 1.48084 3.03271 2.67269C3.03271 3.86455 4.10061 4.83074 5.41792 4.83074Z" fill="#00B1FF"/>
<path d="M12.0054 4.83074C13.3854 4.83074 14.5042 3.86455 14.5042 2.67269C14.5042 1.48084 13.3854 0.514648 12.0054 0.514648C10.6253 0.514648 9.50659 1.48084 9.50659 2.67269C9.50659 3.86455 10.6253 4.83074 12.0054 4.83074Z" fill="#FF9033"/>
</svg>
