<svg width="148" height="150" viewBox="0 0 148 150" fill="none" xmlns="http://www.w3.org/2000/svg">
<path opacity="0.6" d="M20.1521 68.2234C14.6343 62.8556 16.9965 53.5276 24.404 51.4329L97.9165 30.6453C105.324 28.5506 112.221 35.2603 110.332 42.7228L91.5779 116.78C89.6882 124.243 80.4288 126.861 74.9109 121.493L20.1521 68.2234Z" fill="black" fill-opacity="0.2"/>
<path d="M33.0526 88.6658H31.3173V75.9196C31.3173 73.4835 33.3099 71.5087 35.7679 71.5087H41.2583C43.7163 71.5087 45.7089 73.4835 45.7089 75.9196V85.6583C45.7089 87.3193 44.3503 88.6658 42.6744 88.6658H40.768C40.5446 88.6658 40.3634 88.4862 40.3634 88.2648V77.6648C40.3634 76.4944 39.4061 75.5457 38.2253 75.5457C37.0444 75.5457 36.0871 76.4944 36.0871 77.6648V85.6583C36.0871 87.3193 34.7285 88.6658 33.0526 88.6658Z" fill="white"/>
<path d="M33.0526 88.6658H31.3173V75.9196C31.3173 73.4835 33.3099 71.5087 35.7679 71.5087H41.2583C43.7163 71.5087 45.7089 73.4835 45.7089 75.9196V85.6583C45.7089 87.3193 44.3503 88.6658 42.6744 88.6658H40.768C40.5446 88.6658 40.3634 88.4862 40.3634 88.2648V77.6648C40.3634 76.4944 39.4061 75.5457 38.2253 75.5457C37.0444 75.5457 36.0871 76.4944 36.0871 77.6648V85.6583C36.0871 87.3193 34.7285 88.6658 33.0526 88.6658Z" fill="url(#paint0_linear_4627_6818)"/>
<path d="M23.4033 88.6658H21.4046C21.1811 88.6658 21 88.4862 21 88.2648V75.9196C21 73.4835 22.9926 71.5087 25.4506 71.5087H31.7752C34.2332 71.5087 36.2258 73.4835 36.2258 75.9196V85.6583C36.2258 87.3193 34.8672 88.6658 33.1913 88.6658H31.1926C30.9692 88.6658 30.788 88.4862 30.788 88.2648V77.7014C30.788 76.5108 29.8142 75.5457 28.6129 75.5457C27.4116 75.5457 26.4378 76.5108 26.4378 77.7014V85.6583C26.4378 87.3193 25.0792 88.6658 23.4033 88.6658Z" fill="white"/>
<path d="M28.7916 70.0613C29.5926 70.0451 30.3709 69.7948 31.0288 69.3418C31.6868 68.8888 32.1952 68.2533 32.4901 67.5151C32.785 66.7768 32.8534 65.9687 32.6867 65.1921C32.5199 64.4154 32.1255 63.7049 31.5528 63.1496C30.9802 62.5944 30.2548 62.2191 29.4678 62.0709C28.6807 61.9226 27.867 62.0081 27.1288 62.3165C26.3906 62.6249 25.7607 63.1426 25.3182 63.8045C24.8756 64.4664 24.6402 65.2431 24.6414 66.0371C24.645 66.5721 24.7555 67.101 24.9664 67.5935C25.1774 68.086 25.4846 68.5321 25.8705 68.9063C26.2563 69.2804 26.7131 69.5751 27.2145 69.7733C27.7158 69.9716 28.2519 70.0694 28.7916 70.0613Z" fill="white"/>
<path d="M38.502 70.0613C39.303 70.0451 40.0813 69.7948 40.7392 69.3418C41.3972 68.8888 41.9056 68.2533 42.2005 67.5151C42.4955 66.7768 42.5638 65.9687 42.3971 65.1921C42.2304 64.4154 41.8359 63.7049 41.2633 63.1496C40.6906 62.5944 39.9652 62.2191 39.1782 62.0709C38.3911 61.9226 37.5774 62.0081 36.8392 62.3165C36.101 62.6249 35.4711 63.1426 35.0286 63.8045C34.5861 64.4664 34.3506 65.2431 34.3518 66.0371C34.3554 66.5721 34.4659 67.101 34.6768 67.5935C34.8878 68.086 35.195 68.5321 35.5809 68.9063C35.9667 69.2804 36.4235 69.5751 36.9249 69.7733C37.4263 69.9716 37.9623 70.0694 38.502 70.0613Z" fill="white"/>
<path d="M70.5955 88.6497H68.5945C68.3708 88.6497 68.1895 88.4684 68.1895 88.2447V75.7741C68.1895 73.3132 70.1843 71.3184 72.6451 71.3184H78.977C81.4378 71.3184 83.4327 73.3132 83.4327 75.7741V85.6118C83.4327 87.2896 82.0726 88.6497 80.3947 88.6497H78.3938C78.17 88.6497 77.9887 88.4684 77.9887 88.2447V77.5739C77.9887 76.3713 77.0137 75.3963 75.8111 75.3963C74.6084 75.3963 73.6335 76.3713 73.6335 77.5739V85.6118C73.6335 87.2896 72.2733 88.6497 70.5955 88.6497Z" fill="white"/>
<path d="M98.594 71.403L100.595 71.403C100.819 71.403 101 71.5844 101 71.8081L101 84.2787C101 86.7395 99.0051 88.7344 96.5443 88.7344L90.2124 88.7344C87.7516 88.7344 85.7567 86.7395 85.7567 84.2787L85.7567 74.441C85.7567 72.7631 87.1169 71.403 88.7947 71.403L90.7957 71.403C91.0194 71.403 91.2008 71.5844 91.2008 71.8081L91.2008 82.4788C91.2008 83.6815 92.1757 84.6564 93.3784 84.6564C94.581 84.6564 95.556 83.6815 95.556 82.4788L95.556 74.441C95.556 72.7632 96.9161 71.403 98.594 71.403Z" fill="white"/>
<path d="M65.958 80.2935C65.958 80.3453 65.958 80.6577 65.9025 81.2261C65.8826 81.4305 65.7091 81.5841 65.5038 81.5841H53.0478C53.2519 82.5729 53.841 83.4438 54.689 84.0108C55.6387 84.6307 56.7621 84.9416 57.9009 84.8996C58.7021 84.9204 59.5004 84.7973 60.2568 84.5364V84.5364C61.4329 84.0679 62.8851 84.0599 63.7503 84.9841L64.5054 85.7907C64.6479 85.9428 64.6524 86.1793 64.5071 86.3287C62.9435 87.9364 60.6996 88.7378 57.7752 88.7329C56.0222 88.7692 54.2849 88.4013 52.7022 87.6586C51.3125 86.9801 50.145 85.9302 49.3333 84.6291C48.5288 83.3006 48.1155 81.7781 48.1397 80.2317C48.1157 78.7016 48.5176 77.1942 49.3019 75.8729C50.0766 74.5826 51.1991 73.5287 52.5452 72.8279C53.9555 72.1122 55.5174 71.7336 57.1042 71.7229C58.6909 71.7121 60.2579 72.0695 61.6781 72.7661C63.0032 73.4455 64.0956 74.4938 64.8193 75.7802C65.6094 77.1545 66.0031 78.7151 65.958 80.2935ZM57.1863 75.3474C56.1729 75.3171 55.1818 75.6432 54.3906 76.267V76.267C53.185 77.2641 54.383 78.7865 55.9476 78.7865H61.3483C61.2153 77.8158 60.7198 76.9287 59.9583 76.298C59.1841 75.6571 58.1975 75.3188 57.1863 75.3474Z" fill="white"/>
<path d="M50.7197 94.3725C50.7197 94.4684 50.7131 94.5547 50.7 94.6314H48.7009C48.7174 94.8231 48.7865 94.9733 48.9082 95.0819C49.03 95.1906 49.1797 95.2449 49.3574 95.2449C49.6141 95.2449 49.7967 95.1378 49.9053 94.9237H50.6506C50.5716 95.1794 50.4203 95.3903 50.1965 95.5564C49.9727 95.7194 49.698 95.8009 49.3722 95.8009C49.1089 95.8009 48.872 95.7449 48.6614 95.6331C48.4541 95.5181 48.2912 95.3567 48.1728 95.149C48.0576 94.9413 48 94.7017 48 94.4301C48 94.1553 48.0576 93.914 48.1728 93.7063C48.2879 93.4986 48.4492 93.3389 48.6565 93.227C48.8638 93.1152 49.1024 93.0593 49.3722 93.0593C49.6322 93.0593 49.8642 93.1136 50.0682 93.2222C50.2755 93.3309 50.4351 93.4858 50.547 93.6871C50.6621 93.8853 50.7197 94.1137 50.7197 94.3725ZM50.004 94.1808C50.0007 94.0083 49.9365 93.8709 49.8115 93.7686C49.6865 93.6632 49.5334 93.6105 49.3525 93.6105C49.1813 93.6105 49.0366 93.6616 48.9181 93.7638C48.8029 93.8629 48.7322 94.0019 48.7058 94.1808H50.004Z" fill="#FFE303"/>
<path d="M52.7345 95.7577L52.1718 94.9333L51.6733 95.7577H50.9329L51.8263 94.4253L50.923 93.1024H51.7029L52.2607 93.922L52.7641 93.1024H53.5045L52.6062 94.4253L53.5144 95.7577H52.7345Z" fill="#FFE303"/>
<path d="M54.6943 93.6536V94.9381C54.6943 95.0276 54.7157 95.0931 54.7585 95.1346C54.8045 95.173 54.8802 95.1922 54.9855 95.1922H55.3063V95.7577H54.872C54.2895 95.7577 53.9983 95.4829 53.9983 94.9333V93.6536H53.6725V93.1024H53.9983V92.4458H54.6943V93.1024H55.3063V93.6536H54.6943Z" fill="#FFE303"/>
<path d="M58.3454 94.3725C58.3454 94.4684 58.3388 94.5547 58.3257 94.6314H56.3266C56.343 94.8231 56.4121 94.9733 56.5339 95.0819C56.6557 95.1906 56.8054 95.2449 56.9831 95.2449C57.2397 95.2449 57.4224 95.1378 57.531 94.9237H58.2763C58.1973 95.1794 58.046 95.3903 57.8222 95.5564C57.5984 95.7194 57.3237 95.8009 56.9979 95.8009C56.7346 95.8009 56.4977 95.7449 56.2871 95.6331C56.0798 95.5181 55.9169 95.3567 55.7984 95.149C55.6833 94.9413 55.6257 94.7017 55.6257 94.4301C55.6257 94.1553 55.6833 93.914 55.7984 93.7063C55.9136 93.4986 56.0749 93.3389 56.2822 93.227C56.4895 93.1152 56.728 93.0593 56.9979 93.0593C57.2578 93.0593 57.4898 93.1136 57.6939 93.2222C57.9012 93.3309 58.0608 93.4858 58.1726 93.6871C58.2878 93.8853 58.3454 94.1137 58.3454 94.3725ZM57.6297 94.1808C57.6264 94.0083 57.5622 93.8709 57.4372 93.7686C57.3121 93.6632 57.1591 93.6105 56.9781 93.6105C56.807 93.6105 56.6622 93.6616 56.5438 93.7638C56.4286 93.8629 56.3579 94.0019 56.3315 94.1808H57.6297Z" fill="#FFE303"/>
<path d="M60.3651 93.0641C60.6909 93.0641 60.9542 93.1647 61.1549 93.366C61.3556 93.5641 61.456 93.8421 61.456 94.2V95.7577H60.7649V94.2911C60.7649 94.0802 60.7107 93.9188 60.6021 93.807C60.4935 93.6919 60.3454 93.6344 60.1578 93.6344C59.967 93.6344 59.8156 93.6919 59.7037 93.807C59.5951 93.9188 59.5408 94.0802 59.5408 94.2911V95.7577H58.8498V93.1024H59.5408V93.4331C59.633 93.3181 59.7498 93.2286 59.8913 93.1647C60.0361 93.0976 60.194 93.0641 60.3651 93.0641Z" fill="#FFE303"/>
<path d="M61.9354 94.4205C61.9354 94.1521 61.9897 93.914 62.0983 93.7063C62.2102 93.4986 62.3616 93.3389 62.5524 93.227C62.7433 93.1152 62.9555 93.0593 63.1892 93.0593C63.3669 93.0593 63.5363 93.0976 63.6976 93.1743C63.8588 93.2478 63.9871 93.3468 64.0826 93.4715V92.2109H64.7835V95.7577H64.0826V95.3647C63.997 95.4957 63.8769 95.6012 63.7222 95.681C63.5676 95.7609 63.3882 95.8009 63.1842 95.8009C62.9539 95.8009 62.7433 95.7433 62.5524 95.6283C62.3616 95.5133 62.2102 95.3519 62.0983 95.1442C61.9897 94.9333 61.9354 94.6921 61.9354 94.4205ZM64.0875 94.4301C64.0875 94.2671 64.0546 94.1281 63.9888 94.0131C63.923 93.8948 63.8341 93.8054 63.7222 93.7447C63.6104 93.6808 63.4903 93.6488 63.3619 93.6488C63.2336 93.6488 63.1151 93.6792 63.0065 93.7399C62.8979 93.8006 62.8091 93.89 62.74 94.0083C62.6742 94.1233 62.6413 94.2607 62.6413 94.4205C62.6413 94.5802 62.6742 94.7208 62.74 94.8423C62.8091 94.9605 62.8979 95.0516 63.0065 95.1155C63.1184 95.1794 63.2369 95.2113 63.3619 95.2113C63.4903 95.2113 63.6104 95.181 63.7222 95.1203C63.8341 95.0563 63.923 94.9669 63.9888 94.8518C64.0546 94.7336 64.0875 94.593 64.0875 94.4301Z" fill="#FFE303"/>
<path d="M69.2506 93.1024L67.5576 97.0135H66.8221L67.4144 95.6906L66.3186 93.1024H67.0936L67.7994 94.9573L68.5152 93.1024H69.2506Z" fill="#FFE303"/>
<path d="M70.8374 95.8009C70.5741 95.8009 70.3372 95.7449 70.1266 95.6331C69.916 95.5181 69.7498 95.3567 69.6281 95.149C69.5096 94.9413 69.4504 94.7017 69.4504 94.4301C69.4504 94.1585 69.5112 93.9188 69.633 93.7111C69.758 93.5034 69.9275 93.3436 70.1414 93.2318C70.3553 93.1168 70.5939 93.0593 70.8571 93.0593C71.1204 93.0593 71.3589 93.1168 71.5728 93.2318C71.7867 93.3436 71.9545 93.5034 72.0763 93.7111C72.2013 93.9188 72.2639 94.1585 72.2639 94.4301C72.2639 94.7017 72.1997 94.9413 72.0714 95.149C71.9463 95.3567 71.7752 95.5181 71.558 95.6331C71.3441 95.7449 71.1039 95.8009 70.8374 95.8009ZM70.8374 95.2161C70.9624 95.2161 71.0792 95.1874 71.1878 95.1298C71.2997 95.0691 71.3885 94.9797 71.4544 94.8614C71.5202 94.7432 71.5531 94.5994 71.5531 94.4301C71.5531 94.1776 71.484 93.9843 71.3458 93.8501C71.2109 93.7127 71.0447 93.644 70.8472 93.644C70.6498 93.644 70.4836 93.7127 70.3487 93.8501C70.2171 93.9843 70.1513 94.1776 70.1513 94.4301C70.1513 94.6825 70.2154 94.8774 70.3438 95.0148C70.4754 95.149 70.6399 95.2161 70.8374 95.2161Z" fill="#FFE303"/>
<path d="M75.3523 93.1024V95.7577H74.6563V95.4222C74.5675 95.5372 74.4506 95.6283 74.3058 95.6954C74.1643 95.7593 74.0097 95.7913 73.8419 95.7913C73.628 95.7913 73.4388 95.7481 73.2742 95.6619C73.1097 95.5724 72.9797 95.443 72.8843 95.2736C72.7922 95.1011 72.7461 94.8966 72.7461 94.6601V93.1024H73.4371V94.5643C73.4371 94.7752 73.4914 94.9381 73.6 95.0532C73.7086 95.165 73.8567 95.2209 74.0442 95.2209C74.2351 95.2209 74.3848 95.165 74.4934 95.0532C74.602 94.9381 74.6563 94.7752 74.6563 94.5643V93.1024H75.3523Z" fill="#FFE303"/>
<path d="M76.7251 93.5146C76.814 93.374 76.9291 93.2638 77.0706 93.1839C77.2154 93.104 77.38 93.0641 77.5642 93.0641V93.7686H77.3816C77.1644 93.7686 76.9999 93.8182 76.888 93.9172C76.7794 94.0163 76.7251 94.1888 76.7251 94.4349V95.7577H76.0341V93.1024H76.7251V93.5146Z" fill="#FFE303"/>
<path d="M79.8969 93.4906C79.9857 93.3628 80.1075 93.259 80.2621 93.1791C80.4201 93.0992 80.5994 93.0593 80.8002 93.0593C81.0338 93.0593 81.2444 93.1152 81.432 93.227C81.6228 93.3389 81.7725 93.4986 81.8811 93.7063C81.993 93.9108 82.049 94.1489 82.049 94.4205C82.049 94.6921 81.993 94.9333 81.8811 95.1442C81.7725 95.3519 81.6228 95.5133 81.432 95.6283C81.2444 95.7433 81.0338 95.8009 80.8002 95.8009C80.5961 95.8009 80.4168 95.7625 80.2621 95.6858C80.1108 95.6059 79.989 95.5037 79.8969 95.3791V95.7577H79.2058V92.2109H79.8969V93.4906ZM81.3431 94.4205C81.3431 94.2607 81.3086 94.1233 81.2395 94.0083C81.1736 93.89 81.0848 93.8006 80.9729 93.7399C80.8643 93.6792 80.7459 93.6488 80.6175 93.6488C80.4925 93.6488 80.374 93.6808 80.2621 93.7447C80.1535 93.8054 80.0647 93.8948 79.9956 94.0131C79.9298 94.1313 79.8969 94.2703 79.8969 94.4301C79.8969 94.5898 79.9298 94.7288 79.9956 94.8471C80.0647 94.9653 80.1535 95.0563 80.2621 95.1203C80.374 95.181 80.4925 95.2113 80.6175 95.2113C80.7459 95.2113 80.8643 95.1794 80.9729 95.1155C81.0848 95.0516 81.1736 94.9605 81.2395 94.8423C81.3086 94.724 81.3431 94.5834 81.3431 94.4205Z" fill="#FFE303"/>
<path d="M85.1326 93.1024V95.7577H84.4366V95.4222C84.3478 95.5372 84.231 95.6283 84.0862 95.6954C83.9447 95.7593 83.79 95.7913 83.6222 95.7913C83.4083 95.7913 83.2191 95.7481 83.0546 95.6619C82.89 95.5724 82.7601 95.443 82.6646 95.2736C82.5725 95.1011 82.5264 94.8966 82.5264 94.6601V93.1024H83.2175V94.5643C83.2175 94.7752 83.2718 94.9381 83.3803 95.0532C83.4889 95.165 83.637 95.2209 83.8246 95.2209C84.0154 95.2209 84.1652 95.165 84.2738 95.0532C84.3824 94.9381 84.4366 94.7752 84.4366 94.5643V93.1024H85.1326Z" fill="#FFE303"/>
<path d="M86.8609 95.8009C86.6371 95.8009 86.4364 95.7625 86.2587 95.6858C86.081 95.6059 85.9395 95.4989 85.8342 95.3647C85.7322 95.2305 85.6762 95.0819 85.6664 94.919H86.3623C86.3755 95.0212 86.4265 95.1059 86.5153 95.173C86.6075 95.2401 86.721 95.2736 86.8559 95.2736C86.9876 95.2736 87.0896 95.2481 87.162 95.1969C87.2376 95.1458 87.2755 95.0803 87.2755 95.0004C87.2755 94.9142 87.2294 94.8503 87.1373 94.8087C87.0484 94.764 86.9053 94.716 86.7078 94.6649C86.5038 94.617 86.336 94.5675 86.2044 94.5163C86.076 94.4652 85.9642 94.3869 85.8687 94.2815C85.7766 94.176 85.7305 94.0338 85.7305 93.8549C85.7305 93.7079 85.7733 93.5737 85.8589 93.4523C85.9477 93.3309 86.0728 93.235 86.234 93.1647C86.3985 93.0944 86.591 93.0593 86.8115 93.0593C87.1373 93.0593 87.3972 93.1391 87.5914 93.2989C87.7855 93.4555 87.8925 93.668 87.9122 93.9364H87.2508C87.2409 93.8309 87.1949 93.7479 87.1126 93.6871C87.0336 93.6232 86.9267 93.5913 86.7918 93.5913C86.6667 93.5913 86.5696 93.6137 86.5005 93.6584C86.4347 93.7031 86.4018 93.7654 86.4018 93.8453C86.4018 93.9348 86.4479 94.0035 86.54 94.0514C86.6322 94.0961 86.7753 94.1425 86.9695 94.1904C87.1669 94.2383 87.3298 94.2879 87.4581 94.339C87.5865 94.3901 87.6967 94.47 87.7888 94.5786C87.8843 94.6841 87.9336 94.8247 87.9369 95.0004C87.9369 95.1538 87.8925 95.2912 87.8036 95.4126C87.7181 95.5341 87.593 95.6299 87.4285 95.7002C87.2673 95.7673 87.078 95.8009 86.8609 95.8009Z" fill="#FFE303"/>
<path d="M88.8546 92.7861C88.7329 92.7861 88.6308 92.7493 88.5486 92.6758C88.4696 92.5991 88.4301 92.5049 88.4301 92.393C88.4301 92.2812 88.4696 92.1885 88.5486 92.115C88.6308 92.0383 88.7329 92 88.8546 92C88.9764 92 89.0767 92.0383 89.1557 92.115C89.238 92.1885 89.2791 92.2812 89.2791 92.393C89.2791 92.5049 89.238 92.5991 89.1557 92.6758C89.0767 92.7493 88.9764 92.7861 88.8546 92.7861ZM89.1952 93.1024V95.7577H88.5042V93.1024H89.1952Z" fill="#FFE303"/>
<path d="M91.3933 93.0641C91.719 93.0641 91.9823 93.1647 92.183 93.366C92.3838 93.5641 92.4841 93.8421 92.4841 94.2V95.7577H91.7931V94.2911C91.7931 94.0802 91.7388 93.9188 91.6302 93.807C91.5216 93.6919 91.3735 93.6344 91.186 93.6344C90.9951 93.6344 90.8437 93.6919 90.7319 93.807C90.6233 93.9188 90.569 94.0802 90.569 94.2911V95.7577H89.8779V93.1024H90.569V93.4331C90.6611 93.3181 90.7779 93.2286 90.9194 93.1647C91.0642 93.0976 91.2222 93.0641 91.3933 93.0641Z" fill="#FFE303"/>
<path d="M95.6833 94.3725C95.6833 94.4684 95.6767 94.5547 95.6635 94.6314H93.6645C93.6809 94.8231 93.75 94.9733 93.8718 95.0819C93.9935 95.1906 94.1433 95.2449 94.321 95.2449C94.5776 95.2449 94.7603 95.1378 94.8689 94.9237H95.6142C95.5352 95.1794 95.3838 95.3903 95.1601 95.5564C94.9363 95.7194 94.6615 95.8009 94.3358 95.8009C94.0725 95.8009 93.8356 95.7449 93.625 95.6331C93.4177 95.5181 93.2548 95.3567 93.1363 95.149C93.0212 94.9413 92.9636 94.7017 92.9636 94.4301C92.9636 94.1553 93.0212 93.914 93.1363 93.7063C93.2515 93.4986 93.4127 93.3389 93.6201 93.227C93.8274 93.1152 94.0659 93.0593 94.3358 93.0593C94.5957 93.0593 94.8277 93.1136 95.0317 93.2222C95.239 93.3309 95.3986 93.4858 95.5105 93.6871C95.6257 93.8853 95.6833 94.1137 95.6833 94.3725ZM94.9676 94.1808C94.9643 94.0083 94.9001 93.8709 94.7751 93.7686C94.65 93.6632 94.497 93.6105 94.316 93.6105C94.1449 93.6105 94.0001 93.6616 93.8817 93.7638C93.7665 93.8629 93.6957 94.0019 93.6694 94.1808H94.9676Z" fill="#FFE303"/>
<path d="M97.2341 95.8009C97.0103 95.8009 96.8096 95.7625 96.6319 95.6858C96.4542 95.6059 96.3127 95.4989 96.2074 95.3647C96.1054 95.2305 96.0495 95.0819 96.0396 94.919H96.7356C96.7487 95.0212 96.7997 95.1059 96.8886 95.173C96.9807 95.2401 97.0943 95.2736 97.2292 95.2736C97.3608 95.2736 97.4628 95.2481 97.5352 95.1969C97.6109 95.1458 97.6487 95.0803 97.6487 95.0004C97.6487 94.9142 97.6027 94.8503 97.5105 94.8087C97.4217 94.764 97.2785 94.716 97.0811 94.6649C96.8771 94.617 96.7092 94.5675 96.5776 94.5163C96.4493 94.4652 96.3374 94.3869 96.242 94.2815C96.1498 94.176 96.1038 94.0338 96.1038 93.8549C96.1038 93.7079 96.1465 93.5737 96.2321 93.4523C96.3209 93.3309 96.446 93.235 96.6072 93.1647C96.7718 93.0944 96.9643 93.0593 97.1847 93.0593C97.5105 93.0593 97.7705 93.1391 97.9646 93.2989C98.1588 93.4555 98.2657 93.668 98.2855 93.9364H97.624C97.6142 93.8309 97.5681 93.7479 97.4858 93.6871C97.4069 93.6232 97.2999 93.5913 97.165 93.5913C97.04 93.5913 96.9429 93.6137 96.8738 93.6584C96.808 93.7031 96.7751 93.7654 96.7751 93.8453C96.7751 93.9348 96.8211 94.0035 96.9133 94.0514C97.0054 94.0961 97.1485 94.1425 97.3427 94.1904C97.5401 94.2383 97.703 94.2879 97.8314 94.339C97.9597 94.3901 98.0699 94.47 98.1621 94.5786C98.2575 94.6841 98.3069 94.8247 98.3101 95.0004C98.3101 95.1538 98.2657 95.2912 98.1769 95.4126C98.0913 95.5341 97.9663 95.6299 97.8017 95.7002C97.6405 95.7673 97.4513 95.8009 97.2341 95.8009Z" fill="#FFE303"/>
<path d="M99.9238 95.8009C99.7001 95.8009 99.4993 95.7625 99.3216 95.6858C99.1439 95.6059 99.0024 95.4989 98.8971 95.3647C98.7951 95.2305 98.7392 95.0819 98.7293 94.919H99.4253C99.4384 95.0212 99.4895 95.1059 99.5783 95.173C99.6704 95.2401 99.784 95.2736 99.9189 95.2736C100.051 95.2736 100.153 95.2481 100.225 95.1969C100.301 95.1458 100.338 95.0803 100.338 95.0004C100.338 94.9142 100.292 94.8503 100.2 94.8087C100.111 94.764 99.9682 94.716 99.7708 94.6649C99.5668 94.617 99.399 94.5675 99.2673 94.5163C99.139 94.4652 99.0271 94.3869 98.9317 94.2815C98.8396 94.176 98.7935 94.0338 98.7935 93.8549C98.7935 93.7079 98.8363 93.5737 98.9218 93.4523C99.0107 93.3309 99.1357 93.235 99.297 93.1647C99.4615 93.0944 99.654 93.0593 99.8745 93.0593C100.2 93.0593 100.46 93.1391 100.654 93.2989C100.848 93.4555 100.955 93.668 100.975 93.9364H100.314C100.304 93.8309 100.258 93.7479 100.176 93.6871C100.097 93.6232 99.9896 93.5913 99.8547 93.5913C99.7297 93.5913 99.6326 93.6137 99.5635 93.6584C99.4977 93.7031 99.4648 93.7654 99.4648 93.8453C99.4648 93.9348 99.5108 94.0035 99.603 94.0514C99.6951 94.0961 99.8383 94.1425 100.032 94.1904C100.23 94.2383 100.393 94.2879 100.521 94.339C100.649 94.3901 100.76 94.47 100.852 94.5786C100.947 94.6841 100.997 94.8247 101 95.0004C101 95.1538 100.955 95.2912 100.867 95.4126C100.781 95.5341 100.656 95.6299 100.491 95.7002C100.33 95.7673 100.141 95.8009 99.9238 95.8009Z" fill="#FFE303"/>
<defs>
<linearGradient id="paint0_linear_4627_6818" x1="24.5914" y1="70.7559" x2="25.6879" y2="70.8024" gradientUnits="userSpaceOnUse">
<stop stop-color="#151414" stop-opacity="0.2"/>
<stop offset="0.891552" stop-color="white" stop-opacity="0"/>
</linearGradient>
</defs>
</svg>
