<svg width="57" height="65" viewBox="0 0 57 65" fill="none" xmlns="http://www.w3.org/2000/svg">
<path d="M19.2258 26.0646C19.2275 26.7982 19.2616 27.5193 19.3257 28.2214C20.0893 36.58 24.7883 43.0943 31.2982 44.8174C35.3301 45.8848 39.1014 44.7836 41.6464 41.7963C44.2533 38.7373 44.8754 34.3883 43.1945 30.9747C41.9439 28.4339 38.3158 24.1892 28.041 24.3916C24.7727 24.4525 21.828 25.0124 19.2258 26.0646ZM95.333 55.418L94.1835 55.3063C96.8342 29.1359 85.9921 15.8097 76.4307 9.23903C62.3666 -0.42495 43.6312 -0.483032 33.1437 4.37011C23.3524 8.90071 19.6059 17.3857 19.2535 24.8359C21.8684 23.8503 24.7959 23.3242 28.019 23.2639C38.9304 23.0632 42.8652 27.702 44.2359 30.4858C46.1086 34.2902 45.4253 39.1258 42.5348 42.518C39.6883 45.8583 35.4826 47.0932 30.9961 45.9062C24.0143 44.0579 18.982 37.1557 18.1751 28.3217C18.1225 27.7488 18.0896 27.1652 18.0763 26.5721C15.9662 27.5853 14.1016 28.9487 12.4941 30.6578C4.58347 39.0666 5.44298 53.1834 5.4528 53.3249L4.30043 53.3999C4.25942 52.8022 3.39355 38.6691 11.6392 29.8988C13.4784 27.9422 15.63 26.4142 18.0798 25.3192C18.2906 17.3941 22.1555 8.2066 32.6487 3.35065C43.7022 -1.76299 62.5185 -1.69983 77.0955 8.31712C86.9088 15.0603 98.0386 28.7057 95.333 55.418Z" fill="#2D2B39"/>
<path d="M1.62135 59.957C1.62135 59.957 0.325087 52.403 4.50942 52.69C8.69348 52.9769 7.62531 59.957 7.62531 59.957" fill="#FF7550"/>
<path d="M0.0185061 64.8477C0.0185061 64.8477 -0.173711 60.1012 0.680825 59.2167C1.53536 58.3322 8.23002 58.5715 8.79998 59.2167C9.36967 59.8623 9.63444 64.8477 9.63444 64.8477H0.0185061Z" fill="#2D2B39"/>
<path d="M43.0855 42.8501C43.0855 45.0586 41.4185 46.8496 39.3618 46.8496C37.3056 46.8496 35.6387 45.0586 35.6387 42.8501C35.6387 40.6416 37.3056 38.8506 39.3618 38.8506C41.4185 38.8506 43.0855 40.6416 43.0855 42.8501Z" fill="#3C88A7"/>
<path d="M63.4338 27.0258C63.2601 24.7427 60.6624 22.7679 58.5412 24.2402C56.4201 25.7126 56.9891 29.3876 59.5608 30.1918C62.1326 30.9963 63.6112 29.3578 63.4338 27.0258Z" fill="#FF7550"/>
<path d="M62.7556 50.5307C62.8817 49.7051 58.5818 48.4439 58.5818 48.4439C58.5818 48.4439 59.154 44.2609 58.6023 43.7878C57.9476 43.2266 55.5346 47.113 55.5346 47.113C55.5346 47.113 52.0529 45.32 51.279 46.0372C50.5051 46.7544 53.793 49.7008 53.793 49.7008C53.793 49.7008 50.8537 52.2613 51.0429 53.1854C51.2321 54.1096 55.0734 52.9094 55.0734 52.9094C55.0734 52.9094 56.8682 56.3689 57.6527 56.3246C58.4372 56.2803 58.2332 52.0182 58.2332 52.0182C58.2332 52.0182 62.5813 51.6706 62.7556 50.5307Z" fill="#FFB533"/>
</svg>
